Patient4_TMGait_0pt3_02_right_05_GRF.mot
version=1
nRows=32
nColumns=19
inDegrees=no
endheader
time	F1x	F1y	F1z	M1x	M1y	M1z	F2x	F2y	F2z	M2x	M2y	M2z	EC1x	EC1y	EC1z	EC2x	EC2y	EC2z
8.29	-10.5194	794.4987	47.2867	-301.2927	-49.8152	784.4694	9.2528	2.4971	-2.2751	0.95961	-1.8606	7.1059	-0.0592	0.0182	-0.0073	-0.0462	0.0165	0.9585
8.311	-11.8838	816.3641	48.3791	-309.1332	-50.6823	803.1134	6.1857	1.8943	-1.5944	0.72813	-1.1639	5.0672	-0.0592	0.0182	-0.0073	-0.0462	0.0165	0.9585
8.332	-13.1306	841.0416	49.5599	-317.9532	-51.5332	823.7559	3.5581	1.3971	-1.0047	0.53349	-0.57458	3.3579	-0.0592	0.0182	-0.0073	-0.0462	0.0165	0.9585
8.353	-14.024	866.0842	50.6977	-326.8395	-52.1761	844.0707	1.5356	1.0351	-0.55144	0.39065	-0.12054	2.0784	-0.0592	0.0182	-0.0073	-0.0462	0.0165	0.9585
8.374	-14.3363	888.3126	51.6755	-334.6114	-52.4331	861.0765	0.11936	0.80271	-0.2406	0.29941	0.20492	1.2162	-0.0592	0.0182	-0.0073	-0.0462	0.0165	0.9585
8.395	-13.9057	904.1884	52.377	-339.9713	-52.1543	871.519	-0.77678	0.67241	-0.055552	0.25054	0.42332	0.69421	-0.0592	0.0182	-0.0073	-0.0462	0.0165	0.9585
8.416	-12.6701	910.4792	52.6492	-341.753	-51.1983	872.4946	-1.2737	0.60525	0.030296	0.22917	0.56029	0.41495	-0.0592	0.0182	-0.0073	-0.0462	0.0165	0.9585
8.437	-10.6209	905.0206	52.3246	-339.1881	-49.4273	862.1196	-1.4925	0.55235	0.044617	0.21551	0.64242	0.27049	-0.0592	0.0182	-0.0073	-0.0462	0.0165	0.9585
8.458	-7.7862	887.3062	51.2888	-332.1177	-46.7606	840.0673	-1.5383	0.45559	0.012547	0.18618	0.69359	0.15648	-0.0592	0.0182	-0.0073	-0.0462	0.0165	0.9585
8.479	-4.2459	858.6987	49.5291	-321.0661	-43.2246	807.7609	-1.4918	0.24669	-0.046245	0.11446	0.73056	-0.025966	-0.0592	0.0182	-0.0073	-0.0462	0.0165	0.9585
8.5	-0.115	822.2488	47.1728	-307.1705	-38.9851	768.1782	-1.4072	-0.14154	-0.11372	-0.026924	0.75869	-0.37005	-0.0592	0.0182	-0.0073	-0.0462	0.0165	0.9585
8.521	4.4559	782.2307	44.4843	-292.0108	-34.3432	725.3778	-1.3132	-0.77153	-0.17186	-0.26376	0.77395	-0.95875	-0.0592	0.0182	-0.0073	-0.0462	0.0165	0.9585
8.542	9.2813	743.4917	41.8064	-277.38	-29.6777	683.8585	-1.2148	-1.6884	-0.2057	-0.61413	0.76418	-1.8539	-0.0592	0.0182	-0.0073	-0.0462	0.0165	0.9585
8.563	14.2257	710.7434	39.4505	-265.0336	-25.3154	647.882	-1.0974	-2.8936	-0.2031	-1.0781	0.71171	-3.0696	-0.0592	0.0182	-0.0073	-0.0462	0.0165	0.9585
8.584	19.2466	687.7761	37.6311	-256.3964	-21.4572	620.778	-0.93337	-4.3124	-0.15274	-1.6258	0.59557	-4.5353	-0.0592	0.0182	-0.0073	-0.0462	0.0165	0.9585
8.605	24.3488	676.7244	36.4776	-252.2786	-18.2041	604.3362	-0.68383	-5.75	-0.044091	-2.1805	0.39115	-6.0517	-0.0592	0.0182	-0.0073	-0.0462	0.0165	0.9585
8.626	29.54	677.6631	36.0573	-252.7099	-15.5961	598.5173	-0.30539	-6.8403	0.13472	-2.5997	0.067691	-7.2397	-0.0592	0.0182	-0.0073	-0.0462	0.0165	0.9585
8.647	34.7822	688.6312	36.3812	-256.9362	-13.6414	601.548	0.24137	-6.9955	0.39697	-2.6569	-0.40521	-7.4882	-0.0592	0.0182	-0.0073	-0.0462	0.0165	0.9585
8.668	39.9474	706.0712	37.4073	-263.5796	-12.3379	610.3626	0.9796	-5.3679	0.75161	-2.0274	-1.0435	-5.9101	-0.0592	0.0182	-0.0073	-0.0462	0.0165	0.9585
8.689	44.8159	725.6053	39.0431	-270.9334	-11.6781	621.3023	1.8905	-0.8453	1.1924	-0.28758	-1.8303	-1.331	-0.0592	0.0182	-0.0073	-0.0462	0.0165	0.9585
8.71	49.1147	742.8792	41.1405	-277.2913	-11.6323	630.8288	2.8858	7.8835	1.6865	3.0586	-2.6952	7.6438	-0.0592	0.0182	-0.0073	-0.0462	0.0165	0.9585
8.731	52.5685	754.2251	43.4858	-281.2205	-12.1231	636.036	3.7795	22.1523	2.1598	8.5119	-3.4881	22.441	-0.0592	0.0182	-0.0073	-0.0462	0.0165	0.9585
8.752	54.9397	757.0165	45.8107	-281.7154	-13.0218	634.8766	4.2467	42.9877	2.4794	16.4509	-3.9449	44.1817	-0.0592	0.0182	-0.0073	-0.0462	0.0165	0.9585
8.773	56.0766	749.7464	47.823	-278.2413	-14.155	626.1701	3.7338	70.6536	2.4412	26.9573	-3.6377	73.2054	-0.0592	0.0182	-0.0073	-0.0462	0.0165	0.9585
8.794	55.9651	731.9957	49.2444	-270.7221	-15.3131	609.5363	1.5387	104.3227	1.7657	39.6926	-2.0073	108.7215	-0.0592	0.0182	-0.0073	-0.0462	0.0165	0.9585
8.815	54.7352	704.4025	49.8496	-259.5101	-16.2814	585.3772	-2.4784	142.204	0.1698	53.9468	1.2948	148.9004	-0.0592	0.0182	-0.0073	-0.0462	0.0165	0.9585
8.836	52.6247	668.5042	49.5204	-245.2976	-16.8885	554.7818	-7.781	181.5781	-2.4747	68.6703	6.1979	190.8422	-0.0592	0.0182	-0.0073	-0.0462	0.0165	0.9585
8.857	49.9206	626.4923	48.2683	-228.9952	-17.0403	519.3744	-13.5238	219.5431	-5.882	82.78	12.069	231.402	-0.0592	0.0182	-0.0073	-0.0462	0.0165	0.9585
8.878	46.903	580.9302	46.2173	-211.6063	-16.7232	481.1344	-19.116	254.8951	-9.5215	95.8518	18.1226	269.2526	-0.0592	0.0182	-0.0073	-0.0462	0.0165	0.9585
8.899	43.8397	534.3246	43.5448	-194.0684	-15.9649	442.0471	-24.3087	288.3857	-12.9074	108.1951	23.7702	305.1749	-0.0592	0.0182	-0.0073	-0.0462	0.0165	0.9585
8.92	40.9573	488.6379	40.4285	-177.086	-14.8102	403.6987	-29.0167	321.4193	-15.7602	120.3426	28.7077	340.6589	-0.0592	0.0182	-0.0073	-0.0462	0.0165	0.9585
8.941	38.383	444.9487	37.0485	-161.0179	-13.344	366.9955	-33.2441	354.9708	-18.0901	132.6296	32.9589	376.7459	-0.0592	0.0182	-0.0073	-0.0462	0.0165	0.9585
